<svg width="14" height="14" viewBox="0 0 14 14" fill="none" xmlns="http://www.w3.org/2000/svg">
<path d="M6.99959 8.4747L2.17439 13.2999C1.97439 13.4999 1.73279 13.5959 1.44959 13.5879C1.16639 13.5791 0.924794 13.4747 0.724794 13.2747C0.524794 13.0747 0.424794 12.8291 0.424794 12.5379C0.424794 12.2459 0.524794 11.9999 0.724794 11.7999L5.52479 6.9999L0.699594 2.1747C0.499594 1.9747 0.403594 1.7291 0.411594 1.4379C0.420394 1.1459 0.524794 0.899902 0.724794 0.699902C0.924794 0.499902 1.17039 0.399902 1.46159 0.399902C1.75359 0.399902 1.99959 0.499902 2.19959 0.699902L6.99959 5.5251L11.8248 0.699902C12.0248 0.499902 12.2704 0.399902 12.5616 0.399902C12.8536 0.399902 13.0996 0.499902 13.2996 0.699902C13.4996 0.899902 13.5996 1.1459 13.5996 1.4379C13.5996 1.7291 13.4996 1.9747 13.2996 2.1747L8.47439 6.9999L13.2996 11.8251C13.4996 12.0251 13.5996 12.2667 13.5996 12.5499C13.5996 12.8331 13.4996 13.0747 13.2996 13.2747C13.0996 13.4747 12.8536 13.5747 12.5616 13.5747C12.2704 13.5747 12.0248 13.4747 11.8248 13.2747L6.99959 8.4747Z" fill="#16103E"/>
</svg>
