<svg width="32" height="32" viewBox="0 0 32 32" fill="none" xmlns="http://www.w3.org/2000/svg">
<rect width="32" height="32" rx="5" fill="#E3E8EC"/>
<path d="M9.3 24.5C8.8 24.5 8.375 24.325 8.025 23.975C7.675 23.625 7.5 23.2 7.5 22.7V9.3C7.5 8.8 7.675 8.375 8.025 8.025C8.375 7.675 8.8 7.5 9.3 7.5H14.875C15.075 7.5 15.25 7.57067 15.4 7.712C15.55 7.854 15.625 8.03333 15.625 8.25C15.625 8.46667 15.55 8.64567 15.4 8.787C15.25 8.929 15.075 9 14.875 9H9.3C9.23333 9 9.16667 9.03333 9.1 9.1C9.03333 9.16667 9 9.23333 9 9.3V22.7C9 22.7667 9.03333 22.8333 9.1 22.9C9.16667 22.9667 9.23333 23 9.3 23H22.7C22.7667 23 22.8333 22.9667 22.9 22.9C22.9667 22.8333 23 22.7667 23 22.7V17.125C23 16.925 23.0707 16.75 23.212 16.6C23.354 16.45 23.5333 16.375 23.75 16.375C23.9667 16.375 24.146 16.45 24.288 16.6C24.4293 16.75 24.5 16.925 24.5 17.125V22.7C24.5 23.2 24.325 23.625 23.975 23.975C23.625 24.325 23.2 24.5 22.7 24.5H9.3ZM13.2 18.8C13.05 18.6667 12.975 18.4957 12.975 18.287C12.975 18.079 13.05 17.9 13.2 17.75L21.95 9H18.75C18.5333 9 18.3543 8.929 18.213 8.787C18.071 8.64567 18 8.46667 18 8.25C18 8.03333 18.071 7.854 18.213 7.712C18.3543 7.57067 18.5333 7.5 18.75 7.5H23.6C23.85 7.5 24.0627 7.58733 24.238 7.762C24.4127 7.93733 24.5 8.15 24.5 8.4V13.25C24.5 13.4667 24.4293 13.6457 24.288 13.787C24.146 13.929 23.9667 14 23.75 14C23.5333 14 23.354 13.929 23.212 13.787C23.0707 13.6457 23 13.4667 23 13.25V10.05L14.225 18.825C14.0917 18.975 13.925 19.05 13.725 19.05C13.525 19.05 13.35 18.9667 13.2 18.8Z" fill="#16103E"/>
</svg>
