<svg width="11" height="8" viewBox="0 0 11 8" fill="none" xmlns="http://www.w3.org/2000/svg">
<path d="M4 6.66667H6.66667C7.03486 6.66667 7.33333 6.96514 7.33333 7.33333C7.33333 7.67522 7.07597 7.95701 6.74441 7.99552L6.66667 8H4C3.63181 8 3.33333 7.70152 3.33333 7.33333C3.33333 6.99144 3.59069 6.70966 3.92225 6.67115L4 6.66667H6.66667H4ZM2.66667 3.33333H8C8.36819 3.33333 8.66667 3.63181 8.66667 4C8.66667 4.34189 8.40931 4.62367 8.07775 4.66218L8 4.66667H2.66667C2.29848 4.66667 2 4.36819 2 4C2 3.65811 2.25736 3.37633 2.58892 3.33782L2.66667 3.33333H8H2.66667ZM0.666667 0H10C10.3682 0 10.6667 0.298477 10.6667 0.666667C10.6667 1.00856 10.4093 1.29034 10.0777 1.32885L10 1.33333H0.666667C0.298477 1.33333 0 1.03486 0 0.666667C0 0.324776 0.25736 0.0429952 0.588919 0.00448513L0.666667 0H10H0.666667Z" fill="#16103E"/>
</svg>
